<svg id="Layer_1" enable-background="new 0 0 55 55" height="512" viewBox="0 0 55 55" width="512"
    xmlns="http://www.w3.org/2000/svg">
    <path
        fill="#949494" d="m22.2 40.41c-9.94.1-18.08-7.87-18.19-17.81 0-.06 0-.13 0-.19-.02-7.55 4.24-14.46 11-17.82 6.1-3.34 13.59-2.8 19.15 1.39 5.65 4.23 8.41 11.3 7.11 18.24-1.11 7.1-6.1 12.98-12.92 15.24-1.99.63-4.06.95-6.15.95zm1.51-28.83c-1.58.03-3.13.42-4.53 1.14-3.64 1.77-5.96 5.45-6 9.49-.03 2.91 1.35 5.66 3.69 7.38 2.58 1.74 5.83 2.16 8.76 1.13 3.54-1.25 6.09-4.35 6.65-8.06.7-3.57-.7-7.22-3.61-9.4-1.42-1.1-3.16-1.69-4.96-1.68z" />
    <path
        fill="#949494" d="m48.35 50.83c5.9-4.87 2-7.05-12.53-22 0 0-.29-2.38-4.86 2.7-2.32 2.58-9.32-2.22-1.14 7.24 12.2 14.07 13.85 15.92 18.53 12.06z" />
</svg>