<!DOCTYPE svg PUBLIC "-//W3C//DTD SVG 1.1//EN" "http://www.w3.org/Graphics/SVG/1.1/DTD/svg11.dtd">
<!-- Uploaded to: SVG Repo, www.svgrepo.com, Transformed by: SVG Repo Mixer Tools -->
<svg fill="#3366CC" width="800px" height="800px" viewBox="0 0 32 32" id="icon" xmlns="http://www.w3.org/2000/svg" stroke="#3366CC">
<g id="SVGRepo_bgCarrier" stroke-width="0"/>
<g id="SVGRepo_tracerCarrier" stroke-linecap="round" stroke-linejoin="round"/>
<g id="SVGRepo_iconCarrier"> <defs> <style> .cls-1 { fill: none; } </style> </defs> <title>direction--right--02--filled</title> <path d="M28,2H4A2,2,0,0,0,2,4V28a2,2,0,0,0,2,2H28a2,2,0,0,0,2-2V4A2,2,0,0,0,28,2ZM8,6h2v8H8ZM19,24l-1.4141-1.4141L22.1719,18H10v8H8V18a2,2,0,0,1,2-2H22.1719l-4.586-4.5859L19,10l7,7Z"/> <path id="inner-path" class="cls-1" d="M8,6h2v8H8ZM19,24l-1.4141-1.4141L22.1719,18H10v8H8V18a2,2,0,0,1,2-2H22.1719l-4.586-4.5859L19,10l7,7Z"/> <rect id="_Transparent_Rectangle_" data-name="&lt;Transparent Rectangle&gt;" class="cls-1" width="32" height="32"/> </g>
</svg>