<svg id="Capa_1" enable-background="new 0 0 512 512" height="512" viewBox="0 0 512 512" width="512"
    xmlns="http://www.w3.org/2000/svg">
    <g>
        <path d="m231 377h50v105h-50z" />
        <path d="m366 242h-220c-22.257 0-40.781 16.246-44.363 37.5h308.726c-3.582-21.254-22.106-37.5-44.363-37.5z" />
        <path d="m101 309.5h310v37.5h-310z" />
        <path d="m311 444.5h100v37.5h-100z" />
        <path d="m101 444.5h100v37.5h-100z" />
        <path d="m311 377h100v37.5h-100z" />
        <path d="m101 377h100v37.5h-100z" />
        <circle cx="256" cy="135" r="15" />
        <path
            d="m437.02 104.98c-48.353-48.351-112.64-74.98-181.02-74.98s-132.667 26.629-181.02 74.98c-48.351 48.353-74.98 112.64-74.98 181.02v181c0 8.284 6.716 15 15 15h56v-195c0-41.355 33.645-75 75-75h220c41.355 0 75 33.645 75 75v195h56c8.284 0 15-6.716 15-15v-181c0-68.38-26.629-132.667-74.98-181.02zm-181.02 75.02c-24.813 0-45-20.187-45-45s20.187-45 45-45 45 20.187 45 45-20.187 45-45 45z" />
    </g>
</svg>