<svg clip-rule="evenodd" fill-rule="evenodd" stroke-linejoin="round" stroke-miterlimit="2" viewBox="0 0 32 32" xmlns="http://www.w3.org/2000/svg"><path d="m22.205 3.999-.52 5.192c-.015.156-.113.292-.256.357s-.31.048-.438-.043c-.684-.488-1.752-1.249-2.225-1.587-.145-.104-.339-.109-.49-.015-.515.322-1.712 1.071-2.505 1.567-.142.089-.323.089-.466.001-.143-.089-.223-.251-.206-.418l.506-5.054h-6.521c-1.08 0-1.984.818-2.091 1.891l-.512 5.11h-1.981c-.552 0-1 .448-1 1s.448 1 1 1h7c.552 0 1 .448 1 1s-.448 1-1 1h-8.747c-.552 0-1 .448-1 1s.448 1 1 1h5.985c.552 0 1 .448 1 1s-.448 1-1 1h-6.733c-.552 0-1 .448-1 1s.448 1 1 1h7.995c.552 0 1 .448 1 1s-.448 1-1 1h-7.5c-.552 0-1 .448-1 1s.448 1 1 1h2.58l-.07.69c-.059.59.135 1.178.534 1.618.398.44.964.691 1.557.691h19.815c1.08 0 1.984-.818 2.091-1.891l1.983-19.8c.059-.591-.135-1.179-.534-1.619-.398-.439-.964-.69-1.557-.69h-6.694zm.795 21.003h2c.552 0 1-.448 1-1s-.448-1-1-1h-2c-.552 0-1 .448-1 1s.448 1 1 1z"/></svg>