<svg id="BUILDINGS_GLYPH" viewBox="0 0 512 512" xmlns="http://www.w3.org/2000/svg" data-name="BUILDINGS GLYPH"><path d="m452.41 262.77c-51.25-48.24-128.6-117.04-192.03-165.5-1.02-.78-2.66-1.25-4.39-1.25-1.71 0-3.33.46-4.37 1.25-63.42 48.45-140.78 117.26-192.03 165.5-3.81 3.59-8.09 6.53-12.67 8.79-.83 49.83 1.41 99.65 6.73 149.48 4.08 35.16 37.8 68.87 72.95 72.95 86.27 9.22 172.53 9.22 258.8 0 35.16-4.08 68.87-37.8 72.95-72.95 5.32-49.83 7.55-99.65 6.73-149.48-4.59-2.26-8.86-5.2-12.67-8.79z"/><path d="m488.01 248.92c-5.9 0-11.8-2.16-16.43-6.52-51.75-48.71-129.94-118.25-194.19-167.34-12.21-9.35-30.57-9.35-42.75-.02-64.27 49.1-142.46 118.64-194.22 167.36-9.64 9.08-24.82 8.62-33.9-1.03-9.08-9.64-8.62-24.82 1.03-33.9 25.54-24.04 115.28-107.37 197.95-170.53 29.26-22.42 71.76-22.41 101.04.02 82.65 63.14 172.39 146.47 197.92 170.5 9.64 9.08 10.1 24.25 1.03 33.9-4.72 5.01-11.09 7.54-17.47 7.54z"/><path d="m447.36 117.62c.26-36.85-.13-82.82-1.15-92.38-.72-6.23-6.7-12.2-12.93-12.93-15.28-1.63-30.57-1.63-45.85 0-6.23.72-12.2 6.7-12.93 12.93-.44 4.14-.77 15.14-.97 29.27 26.04 21.42 51.36 43.26 73.82 63.11z"/></svg>