<svg id="Capa_1" enable-background="new 0 0 567.6 567.6" height="512" viewBox="0 0 567.6 567.6" width="512" xmlns="http://www.w3.org/2000/svg"><g><g id="Layer_2_00000176022996318657007510000001031608200883274884_"><path d="m382.8 99c.029 18.213 14.787 32.971 33 33h106.999c-4.874-7.115-10.661-13.558-17.213-19.166l-107.896-89.76c-4.639-3.84-9.624-7.242-14.89-10.164z"/><path d="m415.8 171.6c-40.084-.029-72.571-32.516-72.6-72.6v-98.234c-2.957-.264-5.887-.766-8.87-.766h-208.93c-54.646.073-98.927 44.354-99 99v369.6c.073 54.646 44.354 98.927 99 99h316.8c54.646-.073 98.927-44.354 99-99v-279.84c-.125-5.809-.761-11.595-1.901-17.292zm-264-26.4h132c10.935 0 19.8 8.865 19.8 19.8s-8.865 19.8-19.8 19.8h-132c-10.935 0-19.8-8.865-19.8-19.8s8.865-19.8 19.8-19.8zm252.622 217.483-79.2 92.4c-3.593 4.186-8.77 6.684-14.282 6.89-5.513.281-10.881-1.826-14.731-5.782l-38.809-38.781-65.208 65.182c-8 7.455-20.529 7.012-27.984-.988-7.085-7.604-7.085-19.392 0-26.996l79.2-79.2c7.717-7.728 20.237-7.736 27.964-.02l.02.02 37.699 37.752 65.287-76.164c6.845-8.528 19.308-9.892 27.835-3.046 8.528 6.845 9.892 19.307 3.046 27.835-.269.335-.548.661-.838.977v-.079zm11.378-72.283h-264c-10.935 0-19.8-8.865-19.8-19.8s8.865-19.8 19.8-19.8h264c10.935 0 19.8 8.865 19.8 19.8s-8.865 19.8-19.8 19.8z"/></g></g></svg>