<svg id="management" height="512" viewBox="0 0 32 32" width="512" xmlns="http://www.w3.org/2000/svg"><path d="m16 8.6349c-4.0635 0-7.3651 3.3016-7.3651 7.3651 0 3.3321 2.2146 6.146 5.2521 7.0502v-3.3524l-2.4889-2.4787c-.1422-.1422-.2235-.3353-.2235-.5384v-4.0635c0-.2844.1626-.5485.4165-.6806l2.7124-1.3613c.2336-.1219.5181-.1117.7416.0305.2337.1422.3658.386.3658.6502v3.393c0 .3149.2742.5892.5892.5892s.5892-.2743.5892-.5892v-3.393c0-.2641.1321-.5079.3657-.6502.2235-.1422.4978-.1524.7416-.0305l2.7124 1.3613c.254.1321.4165.3962.4165.6806v4.0635c0 .2032-.0812.3962-.2235.5384l-2.4889 2.4787v3.3524c3.0375-.9041 5.252-3.7181 5.252-7.0502 0-4.0635-3.3016-7.3651-7.3651-7.3651zm3.3016 4.4495-1.1886-.5892v2.1536c0 1.1683-.9448 2.113-2.113 2.113s-2.113-.9448-2.113-2.113v-2.1536l-1.1886.5892v3.2812l2.4889 2.4787c.1422.1422.2235.3353.2235.5384v3.9517c.193.0203.386.0305.5892.0305s.3962-.0102.5892-.0305v-3.9517c0-.2032.0813-.3962.2235-.5384l2.4889-2.4787zm-3.3016-4.4495c-4.0635 0-7.3651 3.3016-7.3651 7.3651 0 3.3321 2.2146 6.146 5.2521 7.0502v-3.3524l-2.4889-2.4787c-.1422-.1422-.2235-.3353-.2235-.5384v-4.0635c0-.2844.1626-.5485.4165-.6806l2.7124-1.3613c.2336-.1219.5181-.1117.7416.0305.2337.1422.3658.386.3658.6502v3.393c0 .3149.2742.5892.5892.5892s.5892-.2743.5892-.5892v-3.393c0-.2641.1321-.5079.3657-.6502.2235-.1422.4978-.1524.7416-.0305l2.7124 1.3613c.254.1321.4165.3962.4165.6806v4.0635c0 .2032-.0812.3962-.2235.5384l-2.4889 2.4787v3.3524c3.0375-.9041 5.252-3.7181 5.252-7.0502 0-4.0635-3.3016-7.3651-7.3651-7.3651zm3.3016 4.4495-1.1886-.5892v2.1536c0 1.1683-.9448 2.113-2.113 2.113s-2.113-.9448-2.113-2.113v-2.1536l-1.1886.5892v3.2812l2.4889 2.4787c.1422.1422.2235.3353.2235.5384v3.9517c.193.0203.386.0305.5892.0305s.3962-.0102.5892-.0305v-3.9517c0-.2032.0813-.3962.2235-.5384l2.4889-2.4787zm9.9048-.894h-.8229c-.2438-.7822-.5485-1.5441-.9346-2.2552l.5791-.5791c1.087-1.087 1.087-2.8648 0-3.9518l-1.4324-1.4324c-1.087-1.0869-2.8648-1.0869-3.9517 0l-.5791.5791c-.7111-.386-1.473-.6908-2.2553-.9346v-.8229c0-1.5441-1.2495-2.7937-2.7937-2.7937h-2.0317c-1.5441 0-2.7937 1.2495-2.7937 2.7937v.8229c-.7822.2438-1.5441.5485-2.2552.9346l-.5791-.5791c-1.087-1.0869-2.8648-1.0869-3.9518 0l-1.4324 1.4324c-1.087 1.087-1.087 2.8648 0 3.9518l.5791.5791c-.386.7111-.6908 1.473-.9346 2.2552h-.8229c-1.5441 0-2.7937 1.2495-2.7937 2.7937v2.0317c0 1.5441 1.2496 2.7937 2.7937 2.7937h.8229c.2438.7822.5486 1.5441.9346 2.2552l-.5791.5791c-1.087 1.087-1.087 2.8648 0 3.9518l1.4324 1.4324c1.087 1.0869 2.8648 1.0869 3.9518 0l.5791-.5791c.7111.386 1.473.6908 2.2552.9346v.8229c0 1.5441 1.2496 2.7937 2.7937 2.7937h2.0317c1.5441 0 2.7937-1.2495 2.7937-2.7937v-.8229c.7822-.2438 1.5441-.5485 2.2553-.9346l.5791.5791c1.0869 1.0869 2.8647 1.0869 3.9517 0l1.4324-1.4324c1.087-1.087 1.087-2.8648 0-3.9518l-.5791-.5791c.386-.7111.6908-1.473.9346-2.2552h.8229c1.5441 0 2.7937-1.2495 2.7937-2.7937v-2.0317c0-1.5441-1.2495-2.7937-2.7937-2.7937zm-11.7028 12.5663c-.0508.0102-.1016.0203-.1524.0203-.4368.0812-.894.1117-1.3511.1117s-.9142-.0305-1.3511-.1117c-.0508 0-.1016-.0102-.1524-.0203-4.1854-.7111-7.3854-4.3682-7.3854-8.7568 0-4.8965 3.9924-8.8889 8.8889-8.8889s8.8889 3.9924 8.8889 8.8889c0 4.3886-3.2 8.0457-7.3854 8.7568zm-1.5035-16.1219c-4.0635 0-7.3651 3.3016-7.3651 7.3651 0 3.3321 2.2146 6.146 5.2521 7.0502v-3.3524l-2.4889-2.4787c-.1422-.1422-.2235-.3353-.2235-.5384v-4.0635c0-.2844.1626-.5485.4165-.6806l2.7124-1.3613c.2336-.1219.5181-.1117.7416.0305.2337.1422.3658.386.3658.6502v3.393c0 .3149.2742.5892.5892.5892s.5892-.2743.5892-.5892v-3.393c0-.2641.1321-.5079.3657-.6502.2235-.1422.4978-.1524.7416-.0305l2.7124 1.3613c.254.1321.4165.3962.4165.6806v4.0635c0 .2032-.0812.3962-.2235.5384l-2.4889 2.4787v3.3524c3.0375-.9041 5.252-3.7181 5.252-7.0502 0-4.0635-3.3016-7.3651-7.3651-7.3651zm3.3016 4.4495-1.1886-.5892v2.1536c0 1.1683-.9448 2.113-2.113 2.113s-2.113-.9448-2.113-2.113v-2.1536l-1.1886.5892v3.2812l2.4889 2.4787c.1422.1422.2235.3353.2235.5384v3.9517c.193.0203.386.0305.5892.0305s.3962-.0102.5892-.0305v-3.9517c0-.2032.0813-.3962.2235-.5384l2.4889-2.4787zm-3.3016-4.4495c-4.0635 0-7.3651 3.3016-7.3651 7.3651 0 3.3321 2.2146 6.146 5.2521 7.0502v-3.3524l-2.4889-2.4787c-.1422-.1422-.2235-.3353-.2235-.5384v-4.0635c0-.2844.1626-.5485.4165-.6806l2.7124-1.3613c.2336-.1219.5181-.1117.7416.0305.2337.1422.3658.386.3658.6502v3.393c0 .3149.2742.5892.5892.5892s.5892-.2743.5892-.5892v-3.393c0-.2641.1321-.5079.3657-.6502.2235-.1422.4978-.1524.7416-.0305l2.7124 1.3613c.254.1321.4165.3962.4165.6806v4.0635c0 .2032-.0812.3962-.2235.5384l-2.4889 2.4787v3.3524c3.0375-.9041 5.252-3.7181 5.252-7.0502 0-4.0635-3.3016-7.3651-7.3651-7.3651z"/></svg>