<svg id="Layer_1" enable-background="new 0 0 100 100" viewBox="0 0 100 100" xmlns="http://www.w3.org/2000/svg"><path d="m57.2149963 97.5h-39.7053604c-7.7793827 0-14.1249189-6.3302841-14.1249189-14.1096649v-2.974472c0-8.5268173 3.9507065-16.2146759 10.5708075-20.5619774 3.9964676-2.6236382 8.6488438-4.0117226 13.4537563-4.0117226h19.8755589c4.8049164 0 9.4572906 1.3880844 13.4537582 4.0117226 6.6201057 4.3473015 10.5708122 12.0351601 10.5708122 20.5619774v2.974472c0 7.7793808-6.3302918 14.1096649-14.1249199 14.1096649z"/><path d="m37.3699455 48.9627495c-3.8286781 0-7.6573563-1.4643517-10.7080956-4.3778076-5.6743736-5.4303131-10.9368973-15.0859032-9.8843918-24.4059105.2745667-2.4405918.8999691-5.6591196 3.340559-8.9234095 4.1337509-5.5370922 10.387764-8.7403679 17.1451511-8.755621 6.8946686 0 13.1334267 3.1575141 17.3586998 8.740366 2.4558449 3.2947969 3.0812492 6.5133276 3.3558159 8.9386644v.0762691c.8999672 9.4420357-4.3167915 19.0366077-9.8843918 24.3448925-3.0507393 2.913456-6.8794174 4.3625603-10.7080956 4.3625603z"/><path d="m86.0292206 59.8538857c-3.9964676-2.6236382-8.664093-4.0117226-13.4537582-4.0117226h-8.2675018c7.7488785 5.399807 12.3554916 14.5215149 12.3554916 24.5737v2.974472c0 5.5523453-2.3490753 10.5708084-6.1014786 14.1096649h11.9283905c7.7793808 0 14.1249161-6.3302841 14.1249161-14.1096649v-2.974472c0-8.5268173-3.9507065-16.2146759-10.5708084-20.5619774z"/><path d="m83.2530518 20.2552986v-.0762672c-.2898178-2.4405918-.9152222-5.6591215-3.3710632-8.9386654-4.210022-5.5675979-10.4640351-8.740366-17.3587075-8.740366-2.6083794 0-5.1252403.503372-7.489563 1.4033399 1.3880882 1.2202954 2.6693993 2.5931277 3.8286743 4.1184964 3.2795486 4.3930645 4.0727348 8.6946058 4.4083176 11.5622988v.1677914c1.0219917 10.5708084-4.0117226 20.3331757-9.3505135 26.4346504 2.6541443 1.8456955 5.6896248 2.7761726 8.7251129 2.7761726 3.8286743 0 7.6573563-1.4643517 10.7080917-4.3625565 5.5676041-5.3082847 10.7843629-14.9028606 9.8996507-24.3448944z"/></svg>