<svg id="Layer_1" enable-background="new 0 0 3000 3000" height="512" viewBox="0 0 3000 3000" width="512" fill="#3a64ae"
    xmlns="http://www.w3.org/2000/svg">
    <g transform="translate(-1124 -2810)">
        <g id="Icons">
            <path clip-rule="evenodd"
                d="m1549.625 4498.028c-159.674-134.875-102.06-123.856-154.338-182.4-19.373-18.152-49.415-24.897-73.924-43.416-20.586-14.001-24.966-38.91-11.961-53.349 8.115-5.182 28.693-4.525 51.425-2.306 48.43 3.811 74.853 17.012 108.888 3.713 107.316-73.145 234.711 22.147 269.165-130.017 4.766-14.919 12.262-29.927 25.197-39.068 15.984-10.542 39.067-10.049 57.363-16.168 34.886-8.366 24.48-51.645 25.037-75.441-2.187-64.726-8.983-121.09-6.753-190.644 50.095-22.038 158.282 3.066 212.161-26.047 40.197-21.328 93.499-87.743 144.543-130.429 101.848-89.556 108.419 15.619 190.347 81.038 36.317 25.777 74.347-63.052 96.857-80.065 30.261-31.034 106.273-101.658 152.51-141.871 44.888-44.102 91.037-50.927 132.672-76.36 4.584-3.439 4.324-2.975 5.618-10.708 12.302-68.976 48.39-204.895 115.577-247.484 57.288-45.869 234.605 67.529 314.672 78.285 82.594 4.813 110.304-70.853 227.4-80.58 113.709-15.512 155.695-16.449 219.8-78.602 81.698-69.821 196.588-78.779 287.668-70.328-84.896 129.188-124.486 98.245-132.683 127.824-3.593 15.497 3.874 35.675 13.725 56.833 91.939 166.27 67.616 322.642-20.568 466.374-33.128 59.451-67.925 118.955-85.285 189.921-23.649 122.551-23.564 240.503-20.079 359.808 14.204 101.511 54.163 140.876-17.123 137.542-11.078 1.609-14.668-3.933-12.848 5.799 3.198 20.705 17.686 39.875 16.522 60.565-9.361 52.081-90.738 103.194-95.122 155.184-2.332 22.69 11.042 40.887 26.697 59.105 93.143 105.114 34.927 131.779 5.914 157.14-39.444 32.9-88.511 64.714-87.105 91.757-2.195 72.04 85.588 37.091 119.684 71.39 46.178 61.653-34.164 145.734-68.567 181.504-19.954 22.149-38.195 44.827-47.828 71.745-36.922 101.444 88.615 237.339 130.74 294.039 45.588 83.808-103.221 64.728-120.172 71.719-270.639 18.497-223.41-69.778-282.373-109.897-23.109-14.181-63.3-16.794-92.551-26.798-40.906-15.533-62.081-55.473-104.695-42.541-49.359 12.161-93.09 62.32-147.75 57.28-142.396-.433-255.776-93.23-392.437-105.577-31.796 1.903-60.965 24.216-90.181 30.088-98.112 13.078-116.911-159.604-216.963-200.876-185.08-91.616-194.565-227.709-336.451-323.508-14.495-12.187-27.019-26.254-35.964-43.263-15.861-29.436-22.57-62.468-40.538-90.688-65.228-85.299-176.225-120.171-255.923-190.222zm848.965 226.171c-95.515 31.546-88.202 71.972-65.426 148.868 4.132 58.137-3.478 52.343 21.269 89.481 15.65 31.923 10.198 68.273 22.598 100.96 3.108 9.329 6.982 16.856 13.157 25.395 38.786 44.236 32.228 66.1 53.698 96.666 48.802 67.846 133.185 49.31 204.166 74.618 394.116 182.8 406.702 22.386 303.953-70.646-118.583-90.495-46.905-194.515-200.084-239.106-90.86-31.402-21.118-98.82-170.675-97.201-50.269-12.479-12.867-81.608-61.308-98.64-38.009-11.989-82.55-21.383-121.348-30.395z"
                fill-rule="evenodd" />
        </g>
    </g>
</svg>