<svg height="512" viewBox="0 0 32 32" width="512" xmlns="http://www.w3.org/2000/svg" fill="#3a64ae">
    <g id="Layer_2" data-name="Layer 2">
        <path
            d="m26 2h-20a4 4 0 0 0 -4 4v20a4 4 0 0 0 4 4h20a4 4 0 0 0 4-4v-20a4 4 0 0 0 -4-4zm-2.293 14.707-3 3a1 1 0 0 1 -1.414-1.414l1.293-1.293h-2.586a5.006 5.006 0 0 0 -5 5v1a1 1 0 0 1 -2 0v-11.586l-1.293 1.293a1 1 0 0 1 -1.414-1.414l3-3a1 1 0 0 1 1.414 0l3 3a1 1 0 1 1 -1.414 1.414l-1.293-1.293v5.7a6.973 6.973 0 0 1 5-2.114h2.586l-1.293-1.293a1 1 0 0 1 1.414-1.414l3 3a1 1 0 0 1 0 1.414z" />
    </g>
</svg>