<svg clip-rule="evenodd" fill-rule="evenodd" stroke-linejoin="round" stroke-miterlimit="2" viewBox="0 0 32 32" fill="#3a64ae"
    xmlns="http://www.w3.org/2000/svg">
    <g transform="translate(-240)">
        <g transform="matrix(1.923 0 0 1.923 51.654 -15.269)">
            <path
                d="m105.353 23.02h-4.813c-.414 0-.811-.164-1.103-.457-.293-.292-.457-.689-.457-1.103v-10.92c0-.414.164-.811.457-1.103.292-.293.689-.457 1.103-.457h3.12v3.264c0 .371.197.713.518.899.321.187.716.188 1.038.004l.784-.448.784.448c.322.184.717.183 1.038-.004.321-.186.518-.528.518-.899v-3.264h3.12c.414 0 .811.164 1.103.457.293.292.457.689.457 1.103v4.813c-.93-.734-2.104-1.173-3.38-1.173-3.013 0-5.46 2.447-5.46 5.46 0 1.276.439 2.45 1.173 3.38zm-4.813-2.08h1.56c.287 0 .52-.233.52-.52s-.233-.52-.52-.52h-1.56c-.287 0-.52.233-.52.52s.233.52.52.52zm0-2.08h1.56c.287 0 .52-.233.52-.52s-.233-.52-.52-.52h-1.56c-.287 0-.52.233-.52.52s.233.52.52.52zm4.16-9.88h2.6v3.264l-.784-.448c-.32-.183-.712-.183-1.032 0l-.784.448zm4.94 6.24c2.439 0 4.42 1.981 4.42 4.42s-1.981 4.42-4.42 4.42-4.42-1.981-4.42-4.42 1.981-4.42 4.42-4.42zm-1.612 5.096 1.04.78c.207.155.497.135.68-.048l2.08-2.08c.203-.203.203-.533 0-.736s-.533-.203-.736 0l-1.761 1.761s-.679-.509-.679-.509c-.23-.172-.556-.126-.728.104s-.126.556.104.728z" />
        </g>
    </g>
</svg>