<?xml version="1.0" encoding="iso-8859-1"?>
<!-- Generator: Adobe Illustrator 19.0.0, SVG Export Plug-In . SVG Version: 6.00 Build 0)  -->
<svg version="1.1" id="Capa_1" xmlns="http://www.w3.org/2000/svg" xmlns:xlink="http://www.w3.org/1999/xlink" x="0px" y="0px"
	 viewBox="0 0 512 512" style="enable-background:new 0 0 512 512;" xml:space="preserve" fill="#3a64ae">
<g>
	<g>
		<path d="M436,60h-45v75c0,24.814-20.186,45-45,45H166c-24.814,0-45-20.186-45-45V60H75C33.647,60,0,93.647,0,135v45h50.142
			c20.039,0,39.877,7.808,54.042,21.973l24.844,24.844c8.511,8.496,19.805,13.184,31.831,13.184h190.283
			c12.026,0,23.32-4.688,31.831-13.184l24.844-24.844C421.981,187.808,441.819,180,461.858,180H512v-45
			C512,93.647,477.353,60,436,60z"/>
	</g>
</g>
<g>
	<g>
		<path d="M461.858,210c-12.026,0-24.32,4.688-32.831,13.184l-24.844,24.844C390.019,262.192,371.181,270,351.142,270H160.858
			c-20.039,0-38.877-7.808-53.042-21.973l-25.844-24.844C73.462,214.688,62.168,210,50.142,210H0v227c0,41.353,33.647,75,75,75h361
			c41.353,0,76-33.647,76-75V210H461.858z"/>
	</g>
</g>
<g>
	<g>
		<path d="M352.152,20.361C334.003,12.759,297.396,0,256,0s-78.003,12.759-96.138,20.347c-5.39,2.256-8.862,7.632-8.862,13.696V135
			c0,8.276,6.724,15,15,15h45v-15c0-19.53,12.578-36.024,30-42.237V45c0-8.291,6.709-15,15-15s15,6.709,15,15v47.763
			c17.422,6.213,30,22.707,30,42.237v15h45c8.276,0,15-6.724,15-15V34.043C361,27.979,357.528,22.603,352.152,20.361z"/>
	</g>
</g>
<g>
	<g>
		<path d="M256,120c-8.276,0-15,6.724-15,15v15h30v-15C271,126.724,264.276,120,256,120z"/>
	</g>
</g>
<g>
</g>
<g>
</g>
<g>
</g>
<g>
</g>
<g>
</g>
<g>
</g>
<g>
</g>
<g>
</g>
<g>
</g>
<g>
</g>
<g>
</g>
<g>
</g>
<g>
</g>
<g>
</g>
<g>
</g>
</svg>
