<svg height="512" viewBox="0 0 64 64" width="512" xmlns="http://www.w3.org/2000/svg" fill="#3a64ae">
    <g id="Layer_89" data-name="Layer 89">
        <path
            d="m50 3.5h-36a10.51 10.51 0 0 0 -10.5 10.5v36a10.51 10.51 0 0 0 10.5 10.5h36a10.51 10.51 0 0 0 10.5-10.5v-36a10.51 10.51 0 0 0 -10.5-10.5zm3.2 32.18a10.63 10.63 0 0 1 -10.62 10.62h-25.36l3.69 3.7a.49.49 0 0 1 0 .7l-1.91 1.95a.5.5 0 0 1 -.71 0l-7.88-7.87a.53.53 0 0 1 -.15-.36.51.51 0 0 1 .15-.35l7.88-7.88a.51.51 0 0 1 .71 0l1.94 2a.5.5 0 0 1 0 .71l-3.69 3.69h25.33a6.87 6.87 0 0 0 6.86-6.86v-5.11a.5.5 0 0 1 .5-.5h2.76a.5.5 0 0 1 .5.5zm.43-15.75-7.88 7.88a.51.51 0 0 1 -.71 0l-1.95-1.95a.51.51 0 0 1 0-.71l3.69-3.69h-25.36a6.87 6.87 0 0 0 -6.86 6.86v5.06a.5.5 0 0 1 -.5.5h-2.76a.5.5 0 0 1 -.5-.5v-5.06a10.63 10.63 0 0 1 10.62-10.62h25.36l-3.69-3.7a.5.5 0 0 1 0-.7l1.95-2a.51.51 0 0 1 .71 0l7.88 7.87a.55.55 0 0 1 .15.36.51.51 0 0 1 -.15.4z" />
    </g>
</svg>